# xmcd
#
# Track frame offsets:
#	150
#	6429
#	30578
#	58477
#	91326
#	118700
#	143524
#	165273
#	185685
#	208559
#	231208
#	246807
#	275458
#
# Disc length: 3852 seconds
#
# Revision: 0
# Processed by: cddbd v1.5.2PL0 Copyright (c) Steve Scherf et al.
# Submitted via: audiograbber 1.83.01
#
DISCID=b10f0a0d
DTITLE=Rue - Thorns
DYEAR=2011
DGENRE=Metal
TTITLE0=Thorns
TTITLE1=Brown
TTITLE2=For Thousands of Years
TTITLE3=Sadaver
TTITLE4=Broken Arms Broken Wings
TTITLE5=Storm and Sea
TTITLE6=Pressures
TTITLE7=Choice
TTITLE8=Strong Will Evolve
TTITLE9=High Iron Blues
TTITLE10=Everfailure
TTITLE11=A Walk of Lies
TTITLE12=Thorns (reprise)
EXTD=
EXTT0=
EXTT1=
EXTT2=
EXTT3=
EXTT4=
EXTT5=
EXTT6=
EXTT7=
EXTT8=
EXTT9=
EXTT10=
EXTT11=
EXTT12=
PLAYORDER=
